<svg id="Layer_1" data-name="Layer 1" xmlns="http://www.w3.org/2000/svg" viewBox="0 0 248.05 232.34"><defs><style>.cls-1{fill:none;stroke:#000;stroke-miterlimit:10;stroke-width:2px;}.cls-2{fill:#fff;}.cls-3{font-size:12px;font-family:Impact;}</style></defs><title>fillyourbox</title><polyline class="cls-1" points="156.29 214.87 160.71 230.78 9.42 178.99 1.79 160.87 156.29 214.87 217.29 135.87 66.3 92.81 1.79 160.87"/><polyline class="cls-1" points="66.3 92.81 89.46 13.7 246.74 50.23 217.29 135.87 222.31 151.53 160.71 230.78"/><polyline class="cls-1" points="89.46 13.7 81.99 1.5 240.32 37.54 246.74 50.23"/><polygon class="cls-1" points="92.3 181.37 115.95 153.86 171.52 172.21 149.3 201.21 92.3 181.37"/><polygon class="cls-1" points="23.1 157.03 46.46 130.04 97.7 147.77 74.97 174.85 23.1 157.03"/><polygon class="cls-1" points="51.13 124.24 71.11 101.82 122.97 117.68 102.07 141.86 51.13 124.24"/><polygon class="cls-1" points="121.21 147.54 141.59 123.41 196.65 139.65 175.93 165.45 121.21 147.54"/><path class="cls-1" d="M151.17,184.17" transform="translate(-31.21 -25.63)"/><path class="cls-1" d="M150.17,177.33" transform="translate(-31.21 -25.63)"/><polyline class="cls-1" points="57.24 126.36 72.46 108.37 118.96 122.32"/><line class="cls-1" x1="56.75" y1="92.34" x2="36.09" y2="58.8"/><path d="M97.86,136.29l-0.37-.55a2.35,2.35,0,0,1-3.71-.69,1.6,1.6,0,0,1-2.69-.89A7,7,0,0,0,89.18,131c-1.64-1.82-3.73-3.79-3.81-7.09a0.45,0.45,0,0,0-.46-0.43c-0.34,0-1.07.62-1.5,0l-1.52-2.47c-0.54-.88.31-2.39,4.42-4.9,4.28-2.62,6-3.6,7.09-1.84s1.36,2.22,1.36,2.22a0.85,0.85,0,0,1-.17,1.11,0.36,0.36,0,0,0,.11.48,20,20,0,0,1,3.9,3.54c1.27,1.64,2.22,2,2.77,3.29,0.65,1.53,3.59,6,4.44,7.32s1.72,3.71,3.52,6.49-1.39,4.59-2.74,2.08c-1.07-2-1.34-1.9-1.67-2.62a20.42,20.42,0,0,0-2.12-3.31,17.85,17.85,0,0,0-1.31-2.06,10,10,0,0,1,.24,2.12C101.89,136.68,98.73,137.51,97.86,136.29Z" transform="translate(-31.21 -25.63)"/><path class="cls-2" d="M88.93,119.3a36,36,0,0,0-4.69,3.41c-0.2.25-.47,0.16-0.67-0.24s-1-1.6-1-1.6c-0.36-.58-0.2-1.66,4.34-4.46,4.72-2.86,5.43-3,6.29-1.66l1,1.75a0.39,0.39,0,0,1,0,.35C94,117.15,93.3,116.77,88.93,119.3Z" transform="translate(-31.21 -25.63)"/><path class="cls-2" d="M90.94,123.6a0.31,0.31,0,0,0-.31.09c-0.2.34,0.24,0.55,0.43,0.8a4.6,4.6,0,0,1,1.08,1.9,3.91,3.91,0,0,1-1,2.86,2.08,2.08,0,0,0-.46,1.66c0.12,0.48-.33.67-0.58,0.35a18.41,18.41,0,0,1-3-3.79c-1.28-2.36-2.16-4.78.8-6.8a27.19,27.19,0,0,1,5-2.72c1-.28,1.43.42,2.13,0.84,2.67,1.87,3.65,3.62,4.83,4.84a2,2,0,0,1,.88,1.78c-0.13,2.16.63,4.2,0.59,4.84a1.16,1.16,0,0,1-.14.69,3.35,3.35,0,0,0,0,.93,2.21,2.21,0,0,0,0,.61c-0.49,0-.25-0.51-1.19-0.42a1.07,1.07,0,0,0-.53.41,1.9,1.9,0,0,0,.25,1.27c0.09,0.22.19,0.47,0.28,0.72,0.25,0.65,1,.46.76,0.61-1,.77-1.67-0.81-1.88-1.33a9.91,9.91,0,0,1-.43-1.58c0-.3-0.6-1.41.17-1.87,0.12-.09.4-0.24,0.07-0.5s-1-1.43-.76-1.83a0.78,0.78,0,0,0,.14-0.55c0-.22-0.19-0.26-0.38-0.12a0.63,0.63,0,0,1-.89.07,0.88,0.88,0,0,1-.38-0.72,3.15,3.15,0,0,0-.15-1.13c-0.16-.13-0.36-0.18-0.31.32a1,1,0,0,1-1.28,1c-1.5-.29-1.4,0-3.42-3A0.49,0.49,0,0,0,90.94,123.6Z" transform="translate(-31.21 -25.63)"/><path class="cls-2" d="M94,128.74c0.27-.73.25-1.15,1-1.08,0.12,0,.21.13,0.36,0.57a1.11,1.11,0,0,1-1.25,1.17C94,129.31,93.83,129.18,94,128.74Z" transform="translate(-31.21 -25.63)"/><path class="cls-2" d="M92,129.09c-0.23-.2.68-1.31,0.76-1.34s0.26-.1.61,0.39a1.05,1.05,0,0,1-.56,1.17A0.85,0.85,0,0,1,92,129.09Z" transform="translate(-31.21 -25.63)"/><path class="cls-2" d="M96.17,129.36c0.11-.37.26-1.14,0.58-1.15a0.7,0.7,0,0,1,.79.72,0.91,0.91,0,0,1-1.18,1.13C96.15,129.89,96,129.86,96.17,129.36Z" transform="translate(-31.21 -25.63)"/><path class="cls-2" d="M93.52,134.58c-1.27,1.28-2.17-.43-2.18-1.34,0-1.45-.44-2.47-0.23-3.1,0.11-.35.54-1,0.76-0.75a1.49,1.49,0,0,0,.78.41,2.28,2.28,0,0,1,.5-0.22,1.68,1.68,0,0,0-.34,1.56,16,16,0,0,0,.4,2.14,10,10,0,0,0,.36,1.13A0.12,0.12,0,0,1,93.52,134.58Z" transform="translate(-31.21 -25.63)"/><path class="cls-2" d="M97.1,135.12a15,15,0,0,0-1.16-1.84,2.72,2.72,0,0,1-.63-2.78c0.09-.45.27-0.66,0.31-1s0.22-.65-0.18-0.24a1.05,1.05,0,0,1-.71.57,1.53,1.53,0,0,1-1-.21s-0.09-.09-0.09,0a2.37,2.37,0,0,0-.26,2.12c0.55,1.79.59,2.71,0.73,3.07a1.08,1.08,0,0,0,.13.21,1.43,1.43,0,0,0,.72.66,2.07,2.07,0,0,0,2.07-.26A0.25,0.25,0,0,0,97.1,135.12Z" transform="translate(-31.21 -25.63)"/><path class="cls-2" d="M101,135.6a2.08,2.08,0,0,1-2.63.42,4.41,4.41,0,0,1-1-1.4c-0.55-1-1.11-1.75-1.34-2.15a2.11,2.11,0,0,1-.36-1.65c0.07-.26.12-0.79,0.37-0.61a1,1,0,0,0,.88.27c0.67,0,.79-0.6.85-0.21a2.67,2.67,0,0,1,0,.78c-0.1,1.59,1.22,5.62,2.94,4.45C100.87,135.45,101,135.51,101,135.6Z" transform="translate(-31.21 -25.63)"/><path class="cls-2" d="M101.11,133.07a1.18,1.18,0,0,1,.12.6c0,0.28.39,1.15-.3,1.07s-0.95-1.4-1.05-1.85a0.37,0.37,0,0,1,.18-0.42C100.2,132.39,100.61,132.27,101.11,133.07Z" transform="translate(-31.21 -25.63)"/><path class="cls-2" d="M107.79,137.09c-0.55-.86-1.32-3.14-2.18-4.07a42.5,42.5,0,0,0-2.58-4.3,25.25,25.25,0,0,0-1.87-3,13.18,13.18,0,0,0,.49,3.68,2.7,2.7,0,0,1-.1,2,9.57,9.57,0,0,0,1.63,2.87c0.1,0,.2,0,0.28.19a1.22,1.22,0,0,0,.16.49c1,1.78,1.64,2.69,1.64,2.69a0.57,0.57,0,0,0,.45.27c0.11,0.1-.08.09,0.13,0.53a19.24,19.24,0,0,0,1.35,2.37c0.81,1.39,3.08.43,1.75-1.95C108,137.25,107.89,137.35,107.79,137.09Z" transform="translate(-31.21 -25.63)"/><polyline class="cls-1" points="29.28 159.16 48.3 136.37 94.4 151.7"/><line class="cls-1" x1="46.46" y1="130.04" x2="48.29" y2="136.37"/><polyline class="cls-1" points="126.8 149.36 143.04 130.04 192.81 144.43"/><line class="cls-1" x1="141.59" y1="123.41" x2="143.04" y2="130.04"/><polyline class="cls-1" points="97.7 183.25 117.8 159.16 168.77 175.79"/><line class="cls-1" x1="115.95" y1="153.86" x2="117.79" y2="159.16"/><text class="cls-3" transform="translate(21.13 21.2)">Fill<tspan x="0" y="14.4">it </tspan><tspan x="0" y="28.8">up!</tspan></text></svg>