<svg id="Layer_1" data-name="Layer 1" xmlns="http://www.w3.org/2000/svg" viewBox="0 0 272.22 178.61"><defs><style>.cls-1,.cls-3,.cls-7{fill:none;}.cls-1,.cls-2,.cls-3,.cls-4,.cls-5,.cls-7,.cls-9{stroke:#000;stroke-miterlimit:10;}.cls-1,.cls-7,.cls-9{stroke-width:2px;}.cls-2,.cls-4,.cls-5,.cls-6,.cls-9{fill:#fff;}.cls-3,.cls-4,.cls-5,.cls-7{stroke-linecap:round;}.cls-5{stroke-width:0.5px;}.cls-8{font-size:26px;font-family:Lucida Console;}</style></defs><title>Untitled-3</title><path d="M314.32,258.75a9.65,9.65,0,0,0,4.86.33c6.46-1.47,21-6,24.25-13.95C347.6,235,323,229.5,323,229.5s-12.75-3.56-21.31-.44c0,0-3.35.77-2.69,6.77C299.63,241.53,304.54,254.83,314.32,258.75Z" transform="translate(-184.43 -150.97)"/><path class="cls-1" d="M330,293.95h0c3-.55,28.88-5.86,31.55-25.78,0,0,1.17-15-10-29.67,0,0,2.33-13.33-2.33-24.17,0,0,16.58-12.19,21.77-12.38,0,0,2.6-1.93,2.18,13.92,0,0,.19,6.25,9.56,6.75s7.69-6.44,8.31-11.62-3.94-17.12-14.25-20.87-32.81,17.25-32.81,17.25-9.94-8.75-23.69-7.5c0,0-2.69-47.69-26-44.44s-23.81,10.88-23.81,10.88a19.41,19.41,0,0,0,0,15.25c3.5,8.25,15.75,3.31,17.12,2.94s12.94-8.31,12.94-8.31,2.69-1.58,5.7,2.78c0,0,5.17,5.34,5.67,21.28,0,0-9.94,3.81-19.69,25.06,0,0-18.87,6.13-22.56,20.69s7,28,7,28,9.5,12.06,17.19,13c0,0,10.66,9.28,36,7" transform="translate(-184.43 -150.97)"/><path class="cls-1" d="M296.59,288.83s2.33,7.76-5.59,16" transform="translate(-184.43 -150.97)"/><path class="cls-1" d="M328.76,294.07s-3.1,3.43.82,10.76" transform="translate(-184.43 -150.97)"/><polyline class="cls-1" points="112.57 143.03 14.57 143.03 2.57 154.03 265.57 154.03 242.24 143.03 143.17 143.38"/><ellipse class="cls-2" cx="311.91" cy="234.97" rx="2.6" ry="8.78" transform="translate(-137.17 371.17) rotate(-84.33)"/><ellipse cx="329.76" cy="227.15" rx="1.98" ry="3.67" transform="translate(-127.29 369.47) rotate(-81.65)"/><ellipse cx="319.23" cy="224.31" rx="1.98" ry="3.67" transform="translate(-177.63 307.03) rotate(-71.89)"/><path class="cls-3" d="M312.69,215s1.41-3.53,5.75-1.59" transform="translate(-184.43 -150.97)"/><path class="cls-3" d="M340.09,223.58s1.16-3.62-3.43-4.89" transform="translate(-184.43 -150.97)"/><path class="cls-4" d="M274.38,296.88c-1.25-8.87,1.38-12.63,1.38-12.63s-0.62,6.88,2.38,12.63" transform="translate(-184.43 -150.97)"/><path class="cls-5" d="M269.22,285.4a3.08,3.08,0,0,1,2.15-4.55" transform="translate(-184.43 -150.97)"/><path class="cls-5" d="M271.12,286.58a3.08,3.08,0,0,1,2.15-4.55" transform="translate(-184.43 -150.97)"/><rect class="cls-6" x="145.51" y="152.75" width="32.87" height="2.56"/><rect class="cls-6" x="74.57" y="152.75" width="33.85" height="2.56"/><path d="M289.75,304.12a12.28,12.28,0,0,1,6.87,7.93,6,6,0,0,1-2.66,7.12c-2.19,1.46-5.11,3.31-7.59,1.07-1.07-1-2.67.62-1.59,1.59,4.08,3.68,12.1.24,14-4.48,2.44-5.91-2.93-12.79-7.93-15.18-1.3-.62-2.44,1.32-1.14,1.94h0Z" transform="translate(-184.43 -150.97)"/><path d="M270.33,324.36c2.4,3.85,7.53,4.68,11.77,4.53a6.77,6.77,0,0,0,6.94-6.24c0.2-1.42-2-2-2.17-.6-0.46,3.28-2.56,4.69-5.91,4.57-3.08-.11-6.92-0.54-8.69-3.39a1.13,1.13,0,0,0-1.94,1.14h0Z" transform="translate(-184.43 -150.97)"/><path d="M280.9,300c-5-3.09-12.41-1.53-17.55.69a15.92,15.92,0,0,0-9.63,12.54c-1.2,10.49,11.32,21.45,20.82,13.77,1.13-.91-0.47-2.49-1.59-1.59-3.89,3.15-10.19,1.59-13.5-1.66a12.57,12.57,0,0,1-2.4-14c3.22-7,15.75-12.07,22.71-7.8A1.13,1.13,0,0,0,280.9,300h0Z" transform="translate(-184.43 -150.97)"/><ellipse cx="277.18" cy="166.13" rx="2.75" ry="1.79" transform="translate(-220.88 -62.71) rotate(-16.99)"/><ellipse cx="273.52" cy="171.3" rx="1.79" ry="2.75" transform="translate(-232.23 -9.8) rotate(-26.7)"/><ellipse cx="278.86" cy="170.69" rx="1.38" ry="1.69" transform="translate(-127.47 259.84) rotate(-78.73)"/><path d="M332,302.18c-5,2.39-10.37,9.27-7.93,15.18,2,4.72,10,8.15,14,4.48,1.08-1-.52-2.56-1.59-1.59-2.48,2.23-5.4.39-7.59-1.07a6,6,0,0,1-2.66-7.12,12.28,12.28,0,0,1,6.87-7.93c1.31-.62.17-2.57-1.14-1.94h0Z" transform="translate(-184.43 -150.97)"/><path d="M350.61,323.22c-1.78,2.86-5.61,3.28-8.69,3.39-3.33.12-5.45-1.25-5.91-4.57-0.2-1.43-2.37-.82-2.17.6a6.77,6.77,0,0,0,6.94,6.24c4.24,0.15,9.37-.68,11.77-4.53a1.13,1.13,0,0,0-1.94-1.14h0Z" transform="translate(-184.43 -150.97)"/><path d="M343.12,302c7-4.27,19.51.8,22.71,7.8a12.52,12.52,0,0,1-2.4,14c-3.31,3.26-9.61,4.81-13.5,1.66-1.12-.9-2.72.68-1.59,1.59,9.5,7.68,22-3.27,20.82-13.77a15.91,15.91,0,0,0-9.49-12.48c-5.15-2.27-12.63-3.84-17.69-.74a1.13,1.13,0,0,0,1.14,1.94h0Z" transform="translate(-184.43 -150.97)"/><path class="cls-7" d="M285.57,240s-6.16,16,2.39,26.5,25,16.25,31.27,16.63,20.94-.37,27.52-9.46c6.28-8.67,6.83-10,4.83-20.17" transform="translate(-184.43 -150.97)"/><text class="cls-8" transform="translate(149.97 19.63) rotate(21.78)">?</text><path class="cls-9" d="M234,270.9c-4,.31-4.8-0.6-4.8-0.6s-7.72-4.71-11.08-1.14c-2.83,3-2.69,5.57-2.57,6.3a2,2,0,0,1,0,.46c-0.21,2.91,2.77,4.59,2.77,4.59a10.7,10.7,0,0,0,5.24,1.45c2.73-.09,3.88,3,3.88,3,4,12.36,2.47,20,2.47,20l13.67-.92s-5.9-15.92-4.54-21.89c0,0,0-2.18,3.28-3.36s5.14-5.27,5.66-7,0-4.19-2.66-7.13-4.68-3.39-8.66-2.66-7.48,8.23-7.48,8.23" transform="translate(-184.43 -150.97)"/><path class="cls-9" d="M207.61,271.21c-4-.37-4.63-1.42-4.63-1.42s-6.8-6-10.72-3c-3.31,2.48-3.6,5-3.62,5.76a2,2,0,0,1-.07.46c-0.71,2.83,1.94,5,1.94,5a10.7,10.7,0,0,0,4.91,2.33c2.7,0.38,3.3,3.64,3.3,3.64,1.8,12.86-1,20.15-1,20.15l13.6,0.91s-3.06-16.15-.69-21.8c0,0,.41-2.14,3.81-2.75s6-4.31,6.77-5.9,0.69-4.14-1.39-7.48-4-4.14-8.08-4.1-8.78,6.83-8.78,6.83" transform="translate(-184.43 -150.97)"/><path class="cls-9" d="M443.34,275.21c-2.94-2.7-2.83-3.93-2.83-3.93s-1.81-8.86-6.7-8.89c-4.14,0-5.91,1.82-6.36,2.4a2,2,0,0,1-.33.33c-2.28,1.82-1.48,5.15-1.48,5.15a10.7,10.7,0,0,0,2.5,4.83c1.92,1.93.43,4.89,0.43,4.89-6.34,11.33-17.63,24.39-17.63,24.39h14.92s7.33-14.71,12.64-17.78c0,0,1.62-1.46,4.7.12s7.36,0.18,9-.6,3-2.88,3.42-6.8-0.7-5.74-4-8.16-11.12.13-11.12,0.13" transform="translate(-184.43 -150.97)"/><path class="cls-9" d="M398.63,275.21c-2.94-2.7-2.83-3.93-2.83-3.93s-1.81-8.86-6.7-8.89c-4.14,0-5.91,1.82-6.36,2.4a2,2,0,0,1-.33.33c-2.28,1.82-1.48,5.15-1.48,5.15a10.7,10.7,0,0,0,2.5,4.83c1.92,1.93.43,4.89,0.43,4.89-6.34,11.33-17.63,24.39-17.63,24.39h14.92s7.33-14.71,12.64-17.78c0,0,1.62-1.46,4.7.12s7.36,0.18,9-.6,3-2.88,3.42-6.8-0.7-5.74-4-8.16-11.12.13-11.12,0.13" transform="translate(-184.43 -150.97)"/></svg>