<svg id="Layer_1" data-name="Layer 1" xmlns="http://www.w3.org/2000/svg" viewBox="0 0 220.14 168.54"><defs><style>.cls-1{font-size:26px;font-family:Variane Script;}.cls-2,.cls-3{fill:none;stroke:#000;stroke-miterlimit:10;}.cls-2{stroke-width:2px;}</style></defs><title>Untitled-2</title><text class="cls-1" transform="matrix(0.12, -0.99, 0.99, 0.12, 184.04, 79.98)">p<tspan x="7.25" y="0">a</tspan><tspan x="14.79" y="0">w</tspan><tspan x="24" y="0">ze</tspan></text><polygon class="cls-2" points="219 88.81 219 67.81 82 145.81 82 166.81 219 88.81"/><polyline class="cls-2" points="82.25 145.81 1 77.31 1 99.31 82.13 166.81"/><polyline class="cls-2" points="219.5 67.81 139.67 1.21 1.5 77.31"/><polygon class="cls-3" points="20.5 84.81 10.17 76.65 37.17 61.81 47.22 69.36 20.5 84.81"/><polygon class="cls-3" points="96.55 91.65 77.17 77.15 127.81 50.81 146.67 64.2 96.55 91.65"/><path d="M227.67,232a8.62,8.62,0,0,0,4.39-2.14q1.2-2,2.88-1.72a2.36,2.36,0,0,0,1.13.11c1.38-.6,1,0,2.11-1.09s0.23-1.11,1.09-2.14c3.14-3.76,1.13-.91,3.37-1.55,1.94-.56,3-1,4-2.83a0.3,0.3,0,0,0-.52-0.3c-2.52,4.55-3.45,1-6.13,2.38-0.86.45-.69,1.09-1.22,1.74-1.93,2.33-4.23,1.86-6,3.2-1.92,1.45-2.71,3.29-5.3,3.77-0.38.07-.22,0.65,0.16,0.58h0Z" transform="translate(-210 -155.18)"/><path d="M228.82,235.68a5.57,5.57,0,0,0,3.09-1.1c1.91-1.52-1.63-.44,1.79-2.52,1-.59.79,0.42,1.53-0.13,2-1.46,3.63-3.18,5.91-4.26,0.6-.28,2.82-1,3.63-1.48,1.41-.83,3-2.58,4.59-2.78,0.38,0,.38-0.65,0-0.6-1.43.18-1.84,0.72-3,1.49-2.61,1.72-5.6,2.58-8.14,4.37-0.68.48-1.26,1.12-1.93,1.59-1.1.77-2.46,0.77-3.55,1.31-2.4,1.2,3,2.62-3.91,3.49-0.38,0-.38.65,0,0.6h0Z" transform="translate(-210 -155.18)"/><path d="M231.12,237.51A3.82,3.82,0,0,0,234,237a3.51,3.51,0,0,0,1.23-1.39,7,7,0,0,1,1.25-2q1.57-.63,3.15-1.21c2.63-1.41,4.7-5.34,8.35-4.89,0.38,0,.38-0.55,0-0.6-1.47-.18-2,0.42-3.28,1a16.7,16.7,0,0,0-3.22,1.55l0,0.06a4.86,4.86,0,0,1-3.21,2.75,15.7,15.7,0,0,0-2.05.81c-1.71,1.17-1.74,4.19-4.85,3.77-0.38-.05-0.54.53-0.16,0.58h0Z" transform="translate(-210 -155.18)"/><path d="M304.37,226c3.7,1.82,5.36,1.83,8.48-.5s3.89-2,6.42-3.42c1.91-1.1,3.17-3,5.39-3.86a32.91,32.91,0,0,1,5.4-1.38c0.38-.08.22-0.66-0.16-0.58a24.59,24.59,0,0,0-10.09,4.35c-1.76,1.22-3.51,1.47-5.35,2.14-0.71.26-.78,0.92-1.36,1.31-4.84,3.25-4.9,3.18-8.43,1.44-0.35-.17-0.65.35-0.3,0.52h0Z" transform="translate(-210 -155.18)"/><path d="M310.87,232.86c-0.71-3.91,5.71-2.59,7.51-3.49s2.48-3,4.22-3.95c2.05-1.17,4.53-.58,6.66-1.67a7.37,7.37,0,0,0,3.46-3.94c0.15-.35-0.36-0.66-0.52-0.3-2.28,5.21-6.31,3.13-10,5.26-2.52,1.46-3.12,3.75-6.66,4.49-2.56.53-5.94,0-5.25,3.76,0.07,0.38.65,0.22,0.58-.16h0Z" transform="translate(-210 -155.18)"/><path d="M314.27,236c2.66,0,4.06-1,6.09-2.58a23.55,23.55,0,0,1,3.07-2.48,22.8,22.8,0,0,1,5.76-.85,9.78,9.78,0,0,0,1.16-.49A6.9,6.9,0,0,0,332,228c2.5-2.79,3.79-3.27,7.38-4.08,1.91-.43,3-0.85,4-2.5a0.3,0.3,0,0,0-.52-0.3c-2,3.22-5.51,1.6-8.22,3.17-1.38.81-2,2.26-3.15,3.33-2.32,2.21-4.57,1.35-7.18,2.2-4,1.3-4.86,5.57-10,5.54a0.3,0.3,0,0,0,0,.6h0Z" transform="translate(-210 -155.18)"/></svg>